 <svg
      width="100px"
      height="100px"
      viewBox="0 0 100 100"
      data-name="Layer 1"
      xmlns="http://www.w3.org/2000/svg"
      {...props}
    >
      <path
        fill="#1C4E80"
        d="M27.24 56.73a3 3 0 00-2 3.67c.18.59.38 1.18.6 1.76a3 3 0 002.76 1.91 3 3 0 002.82-3.71l3-1a17.65 17.65 0 006 7.53l-.91 1.56-.79 1.25a2.87 2.87 0 00-1.54-.1 2.91 2.91 0 00-1.87 1.27 2.88 2.88 0 00-.43 2.21A2.93 2.93 0 0036.1 75c.52.34 1 .67 1.59 1a2.93 2.93 0 001.45.38A2.95 2.95 0 0040.9 71l.9-1.53.73-1.16a17.43 17.43 0 008.08 2c.44 0 .88 0 1.32-.06l.51 3.28a2.95 2.95 0 001 5.73 1.35 1.35 0 00.34 0q.91-.1 1.83-.27A3 3 0 0058 75.48a3 3 0 00-3-2.41l-.51-3.24a17.42 17.42 0 008.45-4.58l2.48 2.23a3 3 0 00.49 3.69 2.94 2.94 0 002 .81 3 3 0 002.09-.92c.43-.45.84-.92 1.23-1.39A3 3 0 0067 65.59l-2.47-2.22a17.53 17.53 0 003.55-8.83h1.52l1.81.13a3 3 0 002.74 2.48h.21a3 3 0 002.91-2.77v-1.95a3 3 0 00-.89-2.08 3 3 0 00-4.17 0 2.89 2.89 0 00-.8 1.56h-3.24a17.55 17.55 0 00-3-9.08l2.51-2a3 3 0 002 .75 2.95 2.95 0 002.89-2.54 2.93 2.93 0 00-.57-2.17c-.37-.49-.76-1-1.16-1.45a3 3 0 00-4.75 3.47l-2.5 2a17.53 17.53 0 00-8-5.06l.26-1.69.33-1.45a2.95 2.95 0 00.64-5.82c-.6-.14-1.21-.26-1.82-.36a2.95 2.95 0 00-1.42 5.7l-.25 1.57-.33 1.46v.08a18.18 18.18 0 00-2.35-.17 17.45 17.45 0 00-7 1.46l-.89-1.39-.68-1.36a2.95 2.95 0 00-1-5 2.89 2.89 0 00-2.25.17c-.55.27-1.09.57-1.63.89a3 3 0 00-1.35 1.81 2.91 2.91 0 00.28 2.27 2.91 2.91 0 003.63 1.23l.88 1.4.59 1.18.06.1A17.57 17.57 0 0034.9 45l-1.84-.7-1.06-.48a3 3 0 00-5.64-1.57c-.24.57-.47 1.15-.67 1.73a3 3 0 002.79 3.93 3 3 0 002.64-1.69l2.75 1.1h.09a17.57 17.57 0 00-.84 5.35 17.25 17.25 0 00.52 4.33l-3.07 1a3 3 0 00-3.33-1.27zm23.41-19.08A15.06 15.06 0 1135.59 52.7a15.07 15.07 0 0115.06-15.05z"
      />
      <path
        fill="#DCDCDC"
        d="M54.68 45.18a1.51 1.51 0 00.11.22 1.46 1.46 0 00.16.19 1.25 1.25 0 00.88.36 1.06 1.06 0 00.25 0l.23-.07a.94.94 0 00.22-.12 1.25 1.25 0 00.19-.15 1.29 1.29 0 00.36-.89 1.27 1.27 0 00-.36-.88 1.25 1.25 0 00-.19-.15.94.94 0 00-.22-.12l-.23-.07a1.25 1.25 0 00-1.5 1.22 1 1 0 000 .25.88.88 0 00.1.21zM54.68 50.73a1.51 1.51 0 00.11.22 1.46 1.46 0 00.16.19 1.25 1.25 0 00.88.36 1.06 1.06 0 00.25 0l.23-.07a.94.94 0 00.22-.12 1.25 1.25 0 00.19-.15 1.39 1.39 0 00.15-.19 1.21 1.21 0 00.19-.45 2.11 2.11 0 000-.25 1.27 1.27 0 00-.36-.88l-.19-.16-.22-.11a1 1 0 00-.23-.07 1.27 1.27 0 00-1.13.34 1.46 1.46 0 00-.16.19 1.51 1.51 0 00-.11.22.88.88 0 00-.07.23 1 1 0 000 .24 1.07 1.07 0 000 .25.88.88 0 00.09.21zM57.45 48a.88.88 0 00.12.21 1 1 0 00.15.19l.19.16.22.11a.9.9 0 00.23.08h.49a1.13 1.13 0 00.24-.08l.21-.11.19-.16a1 1 0 00.16-.19 1.39 1.39 0 00.11-.21 1.09 1.09 0 00.07-.24 1 1 0 000-.48 1.09 1.09 0 00-.07-.24 1.39 1.39 0 00-.11-.21 1 1 0 00-.16-.19l-.19-.16-.21-.11a1.13 1.13 0 00-.24-.08 1.35 1.35 0 00-.49 0 .9.9 0 00-.23.08l-.22.11-.19.16a1 1 0 00-.15.19.88.88 0 00-.12.21 2.17 2.17 0 00-.07.24 1.45 1.45 0 000 .48 2.17 2.17 0 00.07.24zM53.06 48.73a1.22 1.22 0 00.88-.37 1.23 1.23 0 000-1.76 1.29 1.29 0 00-1.77 0 1.25 1.25 0 00.89 2.13zM59.6 23.79a1.09 1.09 0 00.43.08 1.25 1.25 0 00.43-2.42 1.25 1.25 0 00-.86 2.34zM61 20a1.23 1.23 0 00.42.07A1.24 1.24 0 1061 20zM66.63 25a1.2 1.2 0 00.65-.19A1.25 1.25 0 1066 22.69a1.25 1.25 0 00.63 2.31zM70 22.9a1.28 1.28 0 00.65-.18 1.26 1.26 0 10-.65.18zM62.16 26.52a1.26 1.26 0 001.06.59 1.28 1.28 0 00.66-.18 1.25 1.25 0 10-1.72-.41zM65.57 31.09h.08a1.21 1.21 0 10-.08 0zM69.57 31.35h.08a1.22 1.22 0 10-.08 0zM32.23 85.1a1.25 1.25 0 00.43.07 1.25 1.25 0 00.43-2.42 1.25 1.25 0 00-1.61.74 1.27 1.27 0 00.75 1.61zM35.21 80.59a1.25 1.25 0 10-1.61.75 1.29 1.29 0 00.43.07 1.26 1.26 0 001.18-.82zM26.78 78a1.25 1.25 0 00-.41 1.72 1.27 1.27 0 001.07.6 1.25 1.25 0 10-.66-2.32zM30.84 78.17a1.23 1.23 0 00.66-.17 1.25 1.25 0 10-.66.19zM24 82.38a1.2 1.2 0 00.65-.19 1.25 1.25 0 10-1.72-.4 1.26 1.26 0 001.07.59zM29.66 73a1.25 1.25 0 10-1.33 1.16h.08A1.25 1.25 0 0029.66 73zM24.33 73.93h.08a1.37 1.37 0 10-.08 0z"
      />
    </svg>